<?xml version="1.0" encoding="utf-8" standalone="yes"?> <svg width="400" height="400" viewBox="-1 -1 39 39" xmlns="http://www.w3.org/2000/svg" xmlns:xlink="http://www.w3.org/1999/xlink" shape-rendering="crispEdges" id="qr code"><rect id="qr background" fill-opacity="1" fill="rgb(255, 255, 255)" x="-1" y="-1" width="39" height="39"></rect><path fill-opacity="1" fill="rgb(0, 0, 0)" id="qr dark pixels" fill-rule="evenodd" d="M 8 0 L 9 0 L 9 1 L 8 1 z M 11 0 L 14 0 L 14 1 L 11 1 z M 17 0 L 18 0 L 18 1 L 17 1 z M 21 0 L 23 0 L 23 1 L 21 1 z M 25 0 L 26 0 L 26 2 L 27 2 L 27 3 L 26 3 L 26 4 L 23 4 L 23 2 L 24 2 L 24 3 L 25 3 L 25 2 L 24 2 L 24 1 L 25 1 z M 9 1 L 11 1 L 11 3 L 10 3 L 10 2 L 9 2 z M 14 1 L 15 1 L 15 2 L 14 2 z M 18 1 L 20 1 L 20 2 L 19 2 L 19 3 L 18 3 z M 28 1 L 29 1 L 29 2 L 28 2 z M 12 2 L 14 2 L 14 4 L 15 4 L 15 7 L 14 7 L 14 6 L 13 6 L 13 7 L 12 7 L 12 5 L 13 5 L 13 4 L 12 4 z M 15 2 L 17 2 L 17 3 L 15 3 z M 20 2 L 22 2 L 22 4 L 20 4 L 20 5 L 18 5 L 18 4 L 19 4 L 19 3 L 20 3 z M 17 3 L 18 3 L 18 4 L 17 4 z M 27 3 L 29 3 L 29 5 L 28 5 L 28 4 L 27 4 z M 9 4 L 10 4 L 10 5 L 9 5 z M 11 4 L 12 4 L 12 5 L 11 5 z M 16 4 L 17 4 L 17 5 L 16 5 z M 10 5 L 11 5 L 11 7 L 12 7 L 12 8 L 13 8 L 13 10 L 14 10 L 14 11 L 12 11 L 12 12 L 10 12 L 10 13 L 9 13 L 9 14 L 7 14 L 7 13 L 6 13 L 6 12 L 7 12 L 7 11 L 6 11 L 6 10 L 8 10 L 8 9 L 9 9 L 9 8 L 10 8 zM 10 9 L 12 9 L 12 10 L 11 10 L 11 11 L 9 11 L 9 10 L 10 10 z M 8 11 L 9 11 L 9 12 L 8 12 z M 17 5 L 18 5 L 18 6 L 17 6 z M 23 5 L 24 5 L 24 6 L 23 6 z M 25 5 L 26 5 L 26 6 L 25 6 z M 8 6 L 9 6 L 9 8 L 8 8 z M 16 6 L 17 6 L 17 8 L 18 8 L 18 9 L 17 9 L 17 10 L 18 10 L 18 12 L 17 12 L 17 11 L 15 11 L 15 10 L 14 10 L 14 8 L 15 8 L 15 9 L 16 9 z M 18 6 L 19 6 L 19 7 L 18 7 z M 20 6 L 21 6 L 21 7 L 20 7 z M 22 6 L 23 6 L 23 7 L 22 7 z M 24 6 L 25 6 L 25 7 L 24 7 z M 26 6 L 27 6 L 27 7 L 28 7 L 28 9 L 27 9 L 27 10 L 30 10 L 30 11 L 32 11 L 32 12 L 31 12 L 31 13 L 30 13 L 30 12 L 29 12 L 29 11 L 27 11 L 27 12 L 26 12 L 26 11 L 25 11 L 25 10 L 26 10 L 26 8 L 25 8 L 25 7 L 26 7 z M 28 6 L 29 6 L 29 7 L 28 7 z M 13 7 L 14 7 L 14 8 L 13 8 z M 19 7 L 20 7 L 20 8 L 19 8 z M 23 7 L 24 7 L 24 8 L 25 8 L 25 9 L 24 9 L 24 11 L 25 11 L 25 13 L 24 13 L 24 12 L 23 12 L 23 11 L 21 11 L 21 9 L 22 9 L 22 8 L 23 8 z M 0 8 L 2 8 L 2 9 L 3 9 L 3 11 L 1 11 L 1 12 L 0 12 z M 3 8 L 5 8 L 5 9 L 3 9 z M 6 8 L 7 8 L 7 9 L 6 9 z M 30 8 L 31 8 L 31 9 L 30 9 z M 36 8 L 37 8 L 37 9 L 36 9 z M 5 9 L 6 9 L 6 10 L 5 10 z M 18 9 L 20 9 L 20 10 L 18 10 z M 31 9 L 33 9 L 33 10 L 35 10 L 35 9 L 36 9 L 36 10 L 37 10 L 37 11 L 35 11 L 35 12 L 34 12 L 34 11 L 32 11 L 32 10 L 31 10 z M 4 10 L 5 10 L 5 13 L 4 13 L 4 14 L 3 14 L 3 15 L 0 15 L 0 14 L 1 14 L 1 12 L 2 12 L 2 13 L 3 13 L 3 12 L 4 12 z M 20 11 L 21 11 L 21 12 L 22 12 L 22 13 L 19 13 L 19 12 L 20 12 z M 12 12 L 13 12 L 13 13 L 12 13 z M 15 12 L 17 12 L 17 13 L 19 13 L 19 14 L 18 14 L 18 15 L 17 15 L 17 14 L 16 14 L 16 15 L 17 15 L 17 16 L 16 16 L 16 18 L 17 18 L 17 17 L 18 17 L 18 19 L 16 19 L 16 22 L 17 22 L 17 23 L 15 23 L 15 24 L 14 24 L 14 23 L 13 23 L 13 25 L 12 25 L 12 24 L 11 24 L 11 22 L 8 22 L 8 18 L 7 18 L 7 17 L 5 17 L 5 18 L 4 18 L 4 17 L 3 17 L 3 16 L 5 16 L 5 15 L 6 15 L 6 16 L 7 16 L 7 15 L 10 15 L 10 14 L 11 14 L 11 17 L 9 17 L 9 16 L 8 16 L 8 17 L 9 17 L 9 19 L 10 19 L 10 18 L 13 18 L 13 19 L 11 19 L 11 21 L 12 21 L 12 22 L 15 22 L 15 21 L 14 21 L 14 20 L 15 20 L 15 19 L 14 19 L 14 17 L 15 17 L 15 15 L 13 15 L 13 13 L 15 13 z M 28 12 L 29 12 L 29 13 L 28 13 z M 33 12 L 34 12 L 34 13 L 35 13 L 35 12 L 37 12 L 37 13 L 36 13 L 36 14 L 37 14 L 37 17 L 34 17 L 34 18 L 33 18 L 33 16 L 34 16 L 34 15 L 35 15 L 35 16 L 36 16 L 36 15 L 35 15 L 35 14 L 32 14 L 32 13 L 33 13 z M 5 13 L 6 13 L 6 14 L 5 14 z M 11 13 L 12 13 L 12 14 L 11 14 z M 22 13 L 24 13 L 24 14 L 23 14 L 23 15 L 22 15 z M 25 13 L 28 13 L 28 14 L 29 14 L 29 13 L 30 13 L 30 14 L 31 14 L 31 17 L 30 17 L 30 16 L 29 16 L 29 15 L 28 15 L 28 16 L 27 16 L 27 15 L 25 15 z M 6 14 L 7 14 L 7 15 L 6 15 z M 19 14 L 20 14 L 20 16 L 18 16 L 18 15 L 19 15 z M 23 15 L 25 15 L 25 16 L 24 16 L 24 17 L 23 17 L 23 18 L 20 18 L 20 22 L 17 22 L 17 20 L 18 20 L 18 19 L 19 19 L 19 17 L 22 17 L 22 16 L 23 16 z M 12 16 L 14 16 L 14 17 L 12 17 z M 25 16 L 27 16 L 27 17 L 26 17 L 26 20 L 22 20 L 22 19 L 23 19 L 23 18 L 24 18 L 24 19 L 25 19 z M 0 17 L 2 17 L 2 18 L 0 18 z M 27 17 L 28 17 L 28 19 L 27 19 z M 29 17 L 30 17 L 30 18 L 31 18 L 31 19 L 29 19 z M 31 17 L 32 17 L 32 18 L 31 18 z M 2 18 L 4 18 L 4 19 L 2 19 z M 6 18 L 7 18 L 7 19 L 6 19 z M 36 18 L 37 18 L 37 21 L 36 21 L 36 22 L 35 22 L 35 20 L 36 20 z M 5 19 L 6 19 L 6 20 L 7 20 L 7 21 L 6 21 L 6 22 L 8 22 L 8 23 L 6 23 L 6 24 L 5 24 L 5 23 L 4 23 L 4 22 L 5 22 z M 13 19 L 14 19 L 14 20 L 13 20 z M 28 19 L 29 19 L 29 21 L 28 21 L 28 23 L 27 23 L 27 24 L 26 24 L 26 22 L 25 22 L 25 21 L 26 21 L 26 20 L 28 20 z M 32 19 L 34 19 L 34 21 L 33 21 L 33 22 L 31 22 L 31 21 L 30 21 L 30 20 L 32 20 z M 2 20 L 4 20 L 4 21 L 3 21 L 3 22 L 2 22 z M 0 21 L 1 21 L 1 23 L 2 23 L 2 24 L 0 24 z M 22 21 L 24 21 L 24 24 L 25 24 L 25 25 L 24 25 L 24 26 L 22 26 L 22 25 L 23 25 L 23 24 L 22 24 z M 20 22 L 21 22 L 21 25 L 20 25 L 20 26 L 22 26 L 22 27 L 19 27 L 19 26 L 18 26 L 18 27 L 17 27 L 17 26 L 16 26 L 16 28 L 15 28 L 15 26 L 14 26 L 14 25 L 15 25 L 15 24 L 16 24 L 16 25 L 19 25 L 19 24 L 20 24 z M 33 22 L 35 22 L 35 23 L 36 23 L 36 22 L 37 22 L 37 25 L 36 25 L 36 24 L 34 24 L 34 25 L 36 25 L 36 26 L 37 26 L 37 28 L 36 28 L 36 27 L 35 27 L 35 28 L 36 28 L 36 30 L 35 30 L 35 31 L 34 31 L 34 32 L 33 32 L 33 30 L 34 30 L 34 28 L 29 28 L 29 27 L 31 27 L 31 25 L 30 25 L 30 24 L 31 24 L 31 23 L 33 23 zM 32 24 L 33 24 L 33 25 L 32 25 z M 32 26 L 33 26 L 33 27 L 32 27 z M 3 23 L 4 23 L 4 25 L 6 25 L 6 26 L 5 26 L 5 29 L 2 29 L 2 27 L 1 27 L 1 29 L 0 29 L 0 25 L 2 25 L 2 26 L 3 26 L 3 25 L 2 25 L 2 24 L 3 24 zM 3 27 L 4 27 L 4 28 L 3 28 z M 17 23 L 18 23 L 18 24 L 17 24 z M 28 23 L 30 23 L 30 24 L 28 24 z M 6 24 L 8 24 L 8 25 L 10 25 L 10 26 L 8 26 L 8 28 L 7 28 L 7 27 L 6 27 L 6 26 L 7 26 L 7 25 L 6 25 z M 27 24 L 28 24 L 28 25 L 29 25 L 29 26 L 28 26 L 28 28 L 27 28 L 27 29 L 26 29 L 26 32 L 27 32 L 27 30 L 28 30 L 28 34 L 27 34 L 27 33 L 24 33 L 24 34 L 25 34 L 25 36 L 24 36 L 24 35 L 23 35 L 23 34 L 22 34 L 22 33 L 23 33 L 23 32 L 22 32 L 22 31 L 23 31 L 23 30 L 24 30 L 24 32 L 25 32 L 25 29 L 22 29 L 22 27 L 24 27 L 24 28 L 26 28 L 26 25 L 27 25 z M 11 25 L 12 25 L 12 26 L 11 26 z M 10 26 L 11 26 L 11 27 L 10 27 z M 12 26 L 14 26 L 14 27 L 12 27 z M 24 26 L 25 26 L 25 27 L 24 27 z M 9 27 L 10 27 L 10 30 L 8 30 L 8 29 L 9 29 z M 11 27 L 12 27 L 12 28 L 11 28 z M 6 28 L 7 28 L 7 29 L 6 29 z M 12 28 L 14 28 L 14 30 L 13 30 L 13 31 L 10 31 L 10 30 L 12 30 z M 19 28 L 21 28 L 21 29 L 20 29 L 20 34 L 18 34 L 18 33 L 19 33 L 19 32 L 18 32 L 18 31 L 17 31 L 17 29 L 18 29 L 18 30 L 19 30 z M 15 29 L 16 29 L 16 36 L 15 36 L 15 34 L 14 34 L 14 35 L 13 35 L 13 33 L 14 33 L 14 32 L 15 32 z M 36 30 L 37 30 L 37 31 L 36 31 z M 9 31 L 10 31 L 10 32 L 13 32 L 13 33 L 12 33 L 12 35 L 13 35 L 13 37 L 11 37 L 11 33 L 9 33 L 9 34 L 8 34 L 8 32 L 9 32 z M 13 31 L 14 31 L 14 32 L 13 32 z M 17 32 L 18 32 L 18 33 L 17 33 z M 35 32 L 37 32 L 37 33 L 35 33 z M 29 33 L 32 33 L 32 34 L 34 34 L 34 33 L 35 33 L 35 35 L 36 35 L 36 34 L 37 34 L 37 37 L 36 37 L 36 36 L 34 36 L 34 37 L 31 37 L 31 34 L 30 34 L 30 35 L 28 35 L 28 34 L 29 34 zM 32 35 L 33 35 L 33 36 L 32 36 z M 17 34 L 18 34 L 18 36 L 17 36 z M 20 34 L 22 34 L 22 35 L 20 35 z M 26 34 L 27 34 L 27 35 L 26 35 z M 8 35 L 9 35 L 9 37 L 8 37 z M 19 35 L 20 35 L 20 37 L 19 37 z M 16 36 L 17 36 L 17 37 L 16 37 z M 23 36 L 24 36 L 24 37 L 23 37 z M 27 36 L 29 36 L 29 37 L 27 37 z"></path><path id="qr squares" d="M0,0h7h0v0v7v0h0h-7h0v0v-7v0h0zM1,1h5h0v0v5v0h0h-5h0v0v-5v0h0zM2,2h3h0v0v3v0h0h-3h0v0v-3v0h0z M30,0h7h0v0v7v0h0h-7h0v0v-7v0h0zM31,1h5h0v0v5v0h0h-5h0v0v-5v0h0zM32,2h3h0v0v3v0h0h-3h0v0v-3v0h0z M0,30h7h0v0v7v0h0h-7h0v0v-7v0h0zM1,31h5h0v0v5v0h0h-5h0v0v-5v0h0zM2,32h3h0v0v3v0h0h-3h0v0v-3v0h0zM28,28h5h0v0v5v0h0h-5h0v0v-5v0h0zM29,29h3h0v0v3v0h0h-3h0v0v-3v0h0zM30,30h1h0v0v1v0h0h-1h0v0v-1v0h0z" fill-rule="evenodd" fill-opacity="1" fill="rgb(0, 0, 0)"></path></svg>